<svg xmlns="http://www.w3.org/2000/svg" width="40" height="40" viewBox="0 0 40 40">
  <g id="Group_798" data-name="Group 798" transform="translate(-21 -711)">
    <rect id="Rectangle" width="40" height="40" rx="10" transform="translate(21 711)" fill="#06853a"/>
    <path id="Path_4458" data-name="Path 4458" d="M75.4,60.527A14.26,14.26,0,0,1,54.282,72.9L46.4,75.4l2.569-7.579a13.979,13.979,0,0,1-2.042-7.294,14.237,14.237,0,0,1,28.473,0M61.164,48.65a11.936,11.936,0,0,0-11.97,11.877,11.753,11.753,0,0,0,2.28,6.964L49.98,71.9l4.6-1.461a11.909,11.909,0,1,0,6.586-21.79m7.189,15.131c-.088-.145-.321-.231-.669-.4S65.619,62.365,65.3,62.25s-.554-.173-.785.173-.9,1.127-1.106,1.358-.406.26-.755.087a9.547,9.547,0,0,1-2.807-1.718,10.528,10.528,0,0,1-1.942-2.4c-.2-.346-.02-.533.153-.706.157-.156.35-.4.524-.606a2.374,2.374,0,0,0,.349-.579.629.629,0,0,0-.03-.606c-.087-.173-.785-1.877-1.076-2.571s-.58-.666-.785-.666a5.025,5.025,0,0,0-.58.06,1.972,1.972,0,0,0-1.019.433A3.871,3.871,0,0,0,54.22,57.4a6.7,6.7,0,0,0,1.424,3.581c.175.232,2.413,3.842,5.962,5.229s3.548.924,4.188.865a3.522,3.522,0,0,0,2.355-1.646,2.878,2.878,0,0,0,.2-1.646" transform="translate(-19.4 670.599)" fill="#fff" fill-rule="evenodd"/>
  </g>
</svg>
