<svg xmlns="http://www.w3.org/2000/svg" width="40" height="40" viewBox="0 0 40 40">
  <g id="Group_799" data-name="Group 799" transform="translate(-21 -781)">
    <rect id="Rectangle" width="40" height="40" rx="10" transform="translate(21 781)" fill="#ffbe00"/>
    <g id="Group_797" data-name="Group 797" transform="translate(-182.475 38.19)">
      <path id="Path_4495" data-name="Path 4495" d="M64.173,90.561,61.3,88.045l-8.218,7.044a1.683,1.683,0,0,0,1.147.45H74.118a1.67,1.67,0,0,0,1.142-.45l-8.213-7.044Z" transform="translate(159.301 675.568)" fill="#efeff4"/>
      <path id="Path_4496" data-name="Path 4496" d="M75.271,61.7a1.672,1.672,0,0,0-1.146-.45H54.235a1.663,1.663,0,0,0-1.143.453l11.088,9.5Z" transform="translate(159.294 693.259)" fill="#efeff4"/>
      <path id="Path_4497" data-name="Path 4497" d="M51.538,65.544V79.33l8.02-6.815Z" transform="translate(160.32 690.426)" fill="#efeff4"/>
      <path id="Path_4498" data-name="Path 4498" d="M96.321,72.506l8.02,6.815V65.53Z" transform="translate(130.749 690.435)" fill="#efeff4"/>
    </g>
  </g>
</svg>
