<svg xmlns="http://www.w3.org/2000/svg" width="21" height="21" viewBox="0 0 21 21">
  <g id="Group_794" data-name="Group 794" transform="translate(-155.269 -483.268)">
    <path id="Path_4459" data-name="Path 4459" d="M29.2,42.882a.883.883,0,1,1,.883.883.884.884,0,0,1-.883-.883" transform="translate(131.179 448.559)" fill="none" stroke="#e02020" stroke-width="1"/>
    <path id="Path_4460" data-name="Path 4460" d="M82.138,42.882a.883.883,0,1,1,.883.883.884.884,0,0,1-.883-.883" transform="translate(87.254 448.559)" fill="none" stroke="#e02020" stroke-width="1"/>
    <path id="Path_4461" data-name="Path 4461" d="M22.125,12.124a10,10,0,1,1-10-10A10,10,0,0,1,22.125,12.124Z" transform="translate(153.644 481.644)" fill="none" stroke="#e02020" stroke-linecap="round" stroke-linejoin="round" stroke-width="1"/>
    <path id="Path_4462" data-name="Path 4462" d="M40.032,70.685a5.632,5.632,0,0,1-10.753,0Z" transform="translate(131.113 424.756)" fill="none" stroke="#e02020" stroke-linecap="round" stroke-linejoin="round" stroke-width="1"/>
  </g>
</svg>
