<svg xmlns="http://www.w3.org/2000/svg" width="40" height="40" viewBox="0 0 40 40">
  <g id="Group_787" data-name="Group 787" transform="translate(-285 -701)">
    <rect id="Rectangle" width="40" height="40" rx="10" transform="translate(285 701)" fill="#e02020"/>
    <path id="Path_4466" data-name="Path 4466" d="M68.353,63.781c-.088-.145-.321-.231-.669-.4S65.619,62.365,65.3,62.25s-.554-.173-.785.173-.9,1.127-1.106,1.358-.406.26-.755.087a9.547,9.547,0,0,1-2.807-1.718,10.528,10.528,0,0,1-1.942-2.4c-.2-.346-.02-.533.153-.706.157-.156.35-.4.524-.606a2.374,2.374,0,0,0,.349-.579.629.629,0,0,0-.03-.606c-.087-.173-.785-1.877-1.076-2.571s-.58-.666-.785-.666a5.025,5.025,0,0,0-.58.06,1.972,1.972,0,0,0-1.019.433A3.871,3.871,0,0,0,54.22,57.4a6.7,6.7,0,0,0,1.424,3.581c.175.232,2.413,3.842,5.962,5.229s3.548.924,4.188.865a3.522,3.522,0,0,0,2.355-1.646,2.878,2.878,0,0,0,.2-1.646" transform="translate(244.6 660.599)" fill="#efeff4" fill-rule="evenodd"/>
  </g>
</svg>
