<svg xmlns="http://www.w3.org/2000/svg" width="22" height="20.43" viewBox="0 0 22 20.43">
  <g id="Group_730" data-name="Group 730" transform="translate(0 0)">
    <path id="Path_4435" data-name="Path 4435" d="M4.159,0H5.2L5.01.027a.323.323,0,0,0,.078.012A1.146,1.146,0,0,1,6.074.5l.007.007q1.784,1.8,3.567,3.6,1.036,1.047,2.068,2.1c.1.1.2.2.3.3.021-.018.034-.028.045-.039.275-.289.549-.58.826-.867q1.149-1.191,2.3-2.379Q16.562,1.79,17.935.365a.343.343,0,0,1,.14-.1A3.85,3.85,0,0,1,19.219.126a3.753,3.753,0,0,1,3.288,2.217,3.9,3.9,0,0,1,.242,2.362,2.063,2.063,0,0,1-.6,1.189c-.182.169-.357.347-.53.525q-1.062,1.1-2.121,2.2c-.5.522-1,1.049-1.495,1.573-.427.448-.849.9-1.284,1.339q-1.517,1.531-3.045,3.051a2.319,2.319,0,0,1-2.056.7,2.273,2.273,0,0,1-1.308-.7c-.807-.818-1.61-1.639-2.418-2.457q-1.679-1.7-3.362-3.4l-2.9-2.932a2.131,2.131,0,0,1-.521-.83A3.877,3.877,0,0,1,.955,3.62a3.439,3.439,0,0,1,.035-.586A3.661,3.661,0,0,1,2.018,1.107,3.55,3.55,0,0,1,3.745.13c.18-.042.364-.068.538-.1L4.159,0" transform="translate(-0.879 0)"/>
    <path id="Path_4436" data-name="Path 4436" d="M0,130.1l.034.369a.361.361,0,0,0,.024.118c.006-.088.019-.177.016-.264a4.964,4.964,0,0,1,.273-1.6c.284-.934.59-1.862.886-2.792.006-.018.014-.034.027-.066.038.034.07.06.1.089a13.422,13.422,0,0,0,1.761,1.516c.924.691,1.93,1.253,2.893,1.883a5.593,5.593,0,0,1,1.737,1.72,2.138,2.138,0,0,1,.265.932,4.563,4.563,0,0,1-.376,2.345,3.542,3.542,0,0,1-1.156,1.485,2.309,2.309,0,0,1-1.254.43,4.552,4.552,0,0,1-2.045-.426,5.784,5.784,0,0,1-1.265-.723,4.817,4.817,0,0,1-.976-1.015,4.589,4.589,0,0,1-.81-1.853,6.324,6.324,0,0,1-.06-.741.29.29,0,0,0-.018-.1L0,131.833V130.1" transform="translate(0 -115.98)"/>
    <path id="Path_4437" data-name="Path 4437" d="M179.77,139.506l.064-.032c-.126-.018-.25-.03-.372-.054a2.134,2.134,0,0,1-1.081-.621,3.956,3.956,0,0,1-.965-1.594,4.906,4.906,0,0,1-.151-2.334,2.142,2.142,0,0,1,.593-1.094,7.013,7.013,0,0,1,1.877-1.466c.832-.468,1.664-.936,2.45-1.481a13.7,13.7,0,0,0,1.856-1.477l.111-.111a.137.137,0,0,1,.029-.013c.012.032.026.063.035.1.231.81.463,1.62.69,2.431a8.7,8.7,0,0,1,.3,1.487c.013.133.014.267.032.4l.032-.189v1.454c-.006-.035-.014-.069-.018-.1s-.005-.07-.009-.133A4.891,4.891,0,0,1,183.756,138a5.271,5.271,0,0,1-3.33,1.452l.345.052Z" transform="translate(-163.27 -119.077)"/>
    <path id="Path_4439" data-name="Path 4439" d="M0,43.25c.007.123.019.246.019.369,0,.106-.012.213-.019.319V43.25" transform="translate(0 -39.852)"/>
  </g>
</svg>
