<svg xmlns="http://www.w3.org/2000/svg" width="37" height="37" viewBox="0 0 37 37">
  <g id="Group_813" data-name="Group 813" transform="translate(-27 -677)">
    <rect id="Rectangle" width="36" height="36" rx="18" transform="translate(27.5 677.5)" fill="#fff" stroke="#eaeaea" stroke-width="1"/>
    <path id="Path_4521" data-name="Path 4521" d="M1.544-8.713A1.569,1.569,0,0,0,3.112-7.145,1.634,1.634,0,0,0,4.749-8.736,1.6,1.6,0,0,0,3.158-10.3,1.6,1.6,0,0,0,1.544-8.713Zm4.611,15.4a1.864,1.864,0,0,0,0-.715c-1.545-.092-1.683-.138-1.683-1.937V-2.142c0-.738.023-1.545.046-2.513l-.392-.138A21.226,21.226,0,0,1,.415-3.733a1.315,1.315,0,0,0,0,.6C2.144-2.9,2.144-2.7,2.144-.9V4.268c0,1.522-.184,1.614-1.752,1.706a1.864,1.864,0,0,0,0,.715c.922,0,1.937-.046,2.928-.046C4.38,6.643,5.28,6.689,6.156,6.689Z" transform="translate(42.643 697.304)" fill="#e02020"/>
  </g>
</svg>
