<svg xmlns="http://www.w3.org/2000/svg" width="37" height="37" viewBox="0 0 37 37">
  <g id="Group_816" data-name="Group 816" transform="translate(-181 -296)">
    <rect id="Rectangle" width="36" height="36" rx="18" transform="translate(181.5 296.5)" fill="#fff" stroke="#eaeaea" stroke-width="1"/>
    <g id="Layer_54" data-name="Layer 54" transform="translate(187.951 302.71)">
      <path id="Path_4523" data-name="Path 4523" d="M11.22,20.59a2.041,2.041,0,0,1-1.449-.6L2.764,12.984A5.932,5.932,0,0,1,1.05,8.732,5.483,5.483,0,0,1,6.587,3.29,5.483,5.483,0,0,1,10.54,4.916l.68.68.558-.558h0a5.708,5.708,0,0,1,7.483-.605,5.612,5.612,0,0,1,.551,8.408l-7.143,7.15a2.041,2.041,0,0,1-1.449.6ZM6.56,4.644a4.163,4.163,0,0,0-2.9,1.17A4.082,4.082,0,0,0,2.41,8.759a4.572,4.572,0,0,0,1.327,3.265l7.007,7.007a.68.68,0,0,0,.966,0l7.15-7.157a4.252,4.252,0,0,0,1.2-3.265,4.2,4.2,0,0,0-1.653-3.1A4.333,4.333,0,0,0,12.717,6L11.7,7.038a.68.68,0,0,1-.966,0L9.581,5.882A4.272,4.272,0,0,0,6.587,4.644Z" transform="translate(0)" fill="#e02020"/>
    </g>
  </g>
</svg>
