<svg xmlns="http://www.w3.org/2000/svg" width="37" height="37" viewBox="0 0 37 37">
  <g id="Group_806" data-name="Group 806" transform="translate(-26.5 -214)">
    <rect id="Rectangle" width="36" height="36" rx="18" transform="translate(27 214.5)" fill="#fff" stroke="#eaeaea" stroke-width="1"/>
    <path id="Path_4501" data-name="Path 4501" d="M22.249,11.494,13.211,2.783a1.033,1.033,0,0,0-1.422,0L2.751,11.494a.591.591,0,0,0-.22.661c.048.119.191.326.612.326H4.161v7.742A1.515,1.515,0,0,0,5.642,21.71h4.581V16.462h4.433V21.71h4.7a1.5,1.5,0,0,0,1.451-1.486V12.481h1.048c.421,0,.564-.207.612-.326A.591.591,0,0,0,22.249,11.494Z" transform="translate(33 220.001)" fill="none" stroke="#e02020" stroke-linecap="round" stroke-linejoin="round" stroke-width="1"/>
  </g>
</svg>
