<svg xmlns="http://www.w3.org/2000/svg" width="37" height="37" viewBox="0 0 37 37">
  <g id="Group_807" data-name="Group 807" transform="translate(-27 -263)">
    <rect id="Rectangle" width="36" height="36" rx="18" transform="translate(27.5 263.5)" fill="#fff" stroke="#eaeaea" stroke-width="1"/>
    <g id="Group_800" data-name="Group 800" transform="translate(20 -73)">
      <path id="Path_181" data-name="Path 181" d="M6.976,41.065H2.258L1,31H3.2v.629A1.258,1.258,0,0,0,4.46,32.887H7.6a1.258,1.258,0,0,0,1.258-1.258V31H10.75" transform="translate(14 322.435)" fill="none" stroke="#e02020" stroke-linecap="round" stroke-linejoin="round" stroke-width="1"/>
      <path id="Path_182" data-name="Path 182" d="M14,22.6V16h2.2v4.718" transform="translate(5.089 332.718)" fill="none" stroke="#e02020" stroke-linecap="round" stroke-linejoin="round" stroke-width="1"/>
      <path id="Path_183" data-name="Path 183" d="M2.842,22.012,2,18.886l2.119-.97.4,1.6" transform="translate(13.315 331.405)" fill="none" stroke="#e02020" stroke-linecap="round" stroke-linejoin="round" stroke-width="1"/>
      <path id="Path_184" data-name="Path 184" d="M23.025,21.907l.313-1.624L21,20" transform="translate(0.29 329.975)" fill="none" stroke="#e02020" stroke-linecap="round" stroke-linejoin="round" stroke-width="1"/>
      <path id="Path_185" data-name="Path 185" d="M36.605,11.887H30L30.629,10h8.177l.629,1.887h-.944" transform="translate(-5.879 336.831)" fill="none" stroke="#e02020" stroke-linecap="round" stroke-linejoin="round" stroke-width="1"/>
      <path id="Path_186" data-name="Path 186" d="M43.548,16h.629l.315,1.887H36" transform="translate(-9.992 332.718)" fill="none" stroke="#e02020" stroke-linecap="round" stroke-linejoin="round" stroke-width="1"/>
      <line id="Line_8" data-name="Line 8" x1="0.548" y2="4.244" transform="translate(33.323 352.492)" fill="none" stroke="#e02020" stroke-linecap="round" stroke-linejoin="round" stroke-width="1"/>
      <path id="Path_187" data-name="Path 187" d="M30,1h4.089l.944,2.831" transform="translate(-5.879 343)" fill="none" stroke="#e02020" stroke-linecap="round" stroke-linejoin="round" stroke-width="1"/>
      <path id="Path_188" data-name="Path 188" d="M36.323,55v.629a1.887,1.887,0,0,1-1.887,1.887H26.887A1.887,1.887,0,0,1,25,55.629V55" transform="translate(-2.452 305.984)" fill="none" stroke="#e02020" stroke-linecap="round" stroke-linejoin="round" stroke-width="1"/>
      <path id="Path_189" data-name="Path 189" d="M36.752,39.4v-.315A4.085,4.085,0,0,0,32.664,35H29.519a4.091,4.091,0,0,0-3.892,2.831" transform="translate(-2.881 319.694)" fill="none" stroke="#e02020" stroke-linecap="round" stroke-linejoin="round" stroke-width="1"/>
      <path id="Path_190" data-name="Path 190" d="M28.91,50.887a2.524,2.524,0,0,1-.493-.049l-.835-.167a2.518,2.518,0,0,0-.987,0l-.835.167a2.522,2.522,0,0,1-.493.049H23.944a.944.944,0,1,1,0-1.887h4.243a3.146,3.146,0,0,1,1.964.689l2.284,1.827,1.3-2.073a.942.942,0,0,1,.8-.443h.095a.946.946,0,0,1,.956.943h0a.943.943,0,0,1-.944.944" transform="translate(-1.081 310.097)" fill="none" stroke="#e02020" stroke-linecap="round" stroke-linejoin="round" stroke-width="1"/>
      <line id="Line_9" data-name="Line 9" x1="2.283" transform="translate(30.978 358.935)" fill="none" stroke="#e02020" stroke-linecap="round" stroke-linejoin="round" stroke-width="1"/>
    </g>
  </g>
</svg>
