<svg xmlns="http://www.w3.org/2000/svg" width="37" height="37" viewBox="0 0 37 37">
  <g id="Group_809" data-name="Group 809" transform="translate(-27 -447)">
    <rect id="Rectangle" width="36" height="36" rx="18" transform="translate(27.5 447.5)" fill="#fff" stroke="#eaeaea" stroke-width="1"/>
    <path id="Path_4463" data-name="Path 4463" d="M23.255,12.107a.924.924,0,0,1-.958.879H.958a.882.882,0,1,1,0-1.758H22.3a.924.924,0,0,1,.958.879M12.745,1.066a1.118,1.118,0,0,0-2.233-.006,8.736,8.736,0,0,1,2.233.006m8.695,9.386H1.816a9.842,9.842,0,0,1,19.623,0M10.505,2.245A10.193,10.193,0,0,0,3.362,9.534h2.08s1.151-5.079,5.063-7.289" transform="translate(34 459)" fill="#e02020"/>
  </g>
</svg>
