<svg xmlns="http://www.w3.org/2000/svg" width="37" height="37" viewBox="0 0 37 37">
  <g id="Group_812" data-name="Group 812" transform="translate(-27 -623)">
    <rect id="Rectangle" width="36" height="36" rx="18" transform="translate(27.5 623.5)" fill="#fff" stroke="#eaeaea" stroke-width="1"/>
    <g id="Group_805" data-name="Group 805" transform="translate(4622 8415.309)">
      <path id="Path_4503" data-name="Path 4503" d="M19.987,9.269c0,1.218-.035,2.438.007,3.654a9.031,9.031,0,0,1-3.54,7.6A32.574,32.574,0,0,1,11.6,23.769c-.379.214-.763.418-1.144.626a.882.882,0,0,1-.9.015,31.229,31.229,0,0,1-6.618-4.424A8.584,8.584,0,0,1,.008,13.432C.011,10.491.016,7.55,0,4.609a.891.891,0,0,1,.641-.943Q5.1,1.892,9.548.09a1.13,1.13,0,0,1,.9.009q4.452,1.794,8.91,3.572a.89.89,0,0,1,.633.951c-.02,1.549-.007,3.1-.007,4.646M1.445,4.9c-.01.16-.024.281-.024.4,0,2.664-.013,5.328.006,7.992a7.654,7.654,0,0,0,.433,2.562,8.482,8.482,0,0,0,2.56,3.5,30.094,30.094,0,0,0,5.257,3.481.561.561,0,0,0,.628,0c1.043-.629,2.105-1.227,3.133-1.879a16.019,16.019,0,0,0,2.991-2.432,7.329,7.329,0,0,0,2.125-5.282c-.007-2.612,0-5.224,0-7.835,0-.17-.016-.341-.024-.5-.1-.049-.16-.084-.224-.11q-4-1.605-7.989-3.213a.785.785,0,0,0-.649.007c-.625.263-1.259.506-1.888.759L1.445,4.9" transform="translate(-4586 -7786.072)" fill="#e02020"/>
      <path id="Path_4520" data-name="Path 4520" d="M374.974,225.012a1.2,1.2,0,0,0,1.683.01l4.573-4.467a1.2,1.2,0,1,0-1.674-1.713l-3.726,3.64-1.628-1.629a1.2,1.2,0,0,0-1.693,1.693Z" transform="translate(-4952.974 -7996.05)" fill="#e02020"/>
    </g>
  </g>
</svg>
