<svg xmlns="http://www.w3.org/2000/svg" width="37" height="37" viewBox="0 0 37 37">
  <g id="Group_808" data-name="Group 808" transform="translate(-27 -338)">
    <rect id="Rectangle" width="36" height="36" rx="18" transform="translate(27.5 338.5)" fill="#fff" stroke="#eaeaea" stroke-width="1"/>
    <path id="Path_4500" data-name="Path 4500" d="M197.281,160.9a5.422,5.422,0,1,1-3.834,1.588,5.408,5.408,0,0,1,3.834-1.588m3.057,2.365a4.323,4.323,0,1,0,1.267,3.057,4.307,4.307,0,0,0-1.267-3.057m-11.961,17.886a.549.549,0,1,1-1.094-.086,10.033,10.033,0,0,1,20,0,.549.549,0,0,1-1.094.09,8.935,8.935,0,0,0-17.808,0" transform="translate(-152.281 185.105)" fill="#e02020"/>
  </g>
</svg>
