<svg xmlns="http://www.w3.org/2000/svg" width="37" height="37" viewBox="0 0 37 37">
  <g id="Group_810" data-name="Group 810" transform="translate(-27 -522)">
    <rect id="Rectangle" width="36" height="36" rx="18" transform="translate(27.5 522.5)" fill="#fff" stroke="#eaeaea" stroke-width="1"/>
    <g id="Group_803" data-name="Group 803" transform="translate(1008.903 7685)">
      <path id="Path_4505" data-name="Path 4505" d="M136.205,10h0a7.382,7.382,0,0,0-7.382,7.382v4.844" transform="translate(-1099.108 -7164)" fill="none" stroke="#e02020" stroke-linecap="round" stroke-linejoin="round" stroke-width="1"/>
      <path id="Path_4506" data-name="Path 4506" d="M11.3,340.492a1.3,1.3,0,0,0-1.3,1.3v2.345a1.3,1.3,0,0,0,1.3,1.3h1.322v-4.954Z" transform="translate(-982.903 -7487.211)" fill="none" stroke="#e02020" stroke-linecap="round" stroke-linejoin="round" stroke-width="1"/>
      <path id="Path_4507" data-name="Path 4507" d="M463.9,10h0a7.382,7.382,0,0,1,7.382,7.382v4.844" transform="translate(-1426.806 -7164)" fill="none" stroke="#e02020" stroke-linecap="round" stroke-linejoin="round" stroke-width="1"/>
      <path id="Path_4508" data-name="Path 4508" d="M799.9,340.492a1.3,1.3,0,0,1,1.3,1.3v2.345a1.3,1.3,0,0,1-1.3,1.3h-1.322v-4.954Z" transform="translate(-1754.109 -7487.211)" fill="none" stroke="#e02020" stroke-linecap="round" stroke-linejoin="round" stroke-width="1"/>
      <rect id="Rectangle_345" data-name="Rectangle 345" width="2.535" height="1.728" rx="0.864" transform="translate(-964.17 -7137.641)" fill="none" stroke="#e02020" stroke-linecap="round" stroke-linejoin="round" stroke-width="1"/>
      <path id="Path_4509" data-name="Path 4509" d="M521.425,570.339h3.187a3.837,3.837,0,0,0,3.837-3.837v-1.152" transform="translate(-1483.061 -7707.116)" fill="none" stroke="#e02020" stroke-linecap="round" stroke-linejoin="round" stroke-width="1"/>
      <path id="Path_4510" data-name="Path 4510" d="M270.946,211.069a4.447,4.447,0,1,0-5.532,4.313l1.085,1.637,1.085-1.637A4.449,4.449,0,0,0,270.946,211.069Z" transform="translate(-1229.402 -7356.291)" fill="none" stroke="#e02020" stroke-linecap="round" stroke-linejoin="round" stroke-width="1"/>
      <circle id="Ellipse_8" data-name="Ellipse 8" cx="0.207" cy="0.207" r="0.207" transform="translate(-960.898 -7145.313)" fill="none" stroke="#e02020" stroke-linecap="round" stroke-linejoin="round" stroke-width="1"/>
      <path id="Path_4511" data-name="Path 4511" d="M454.491,404.5a.207.207,0,1,1,.207.207A.207.207,0,0,1,454.491,404.5Z" transform="translate(-1417.602 -7549.602)" fill="none" stroke="#e02020" stroke-linecap="round" stroke-linejoin="round" stroke-width="1"/>
      <circle id="Ellipse_9" data-name="Ellipse 9" cx="0.207" cy="0.207" r="0.207" transform="translate(-965.322 -7145.313)" fill="none" stroke="#e02020" stroke-linecap="round" stroke-linejoin="round" stroke-width="1"/>
    </g>
  </g>
</svg>
