<svg width="40" height="40" viewBox="0 0 40 40" fill="none" xmlns="http://www.w3.org/2000/svg">
<path d="M39.9375 7.89576C39.9375 3.56987 36.431 0.0625 32.1051 0.0625H7.89486C3.56896 0.0625 0.0625 3.56987 0.0625 7.89576V32.1042C0.0625 36.4301 3.56896 39.9375 7.89486 39.9375H32.1051C36.431 39.9375 39.9375 36.4301 39.9375 32.1042V7.89576ZM36.3125 32.1042C36.3125 34.4282 34.4291 36.3125 32.1051 36.3125H7.89486C5.57087 36.3125 3.6875 34.4282 3.6875 32.1042V7.89576C3.6875 5.57178 5.57087 3.6875 7.89486 3.6875H32.1051C34.4291 3.6875 36.3125 5.57178 36.3125 7.89576V32.1042ZM25.5508 30.875C25.5508 31.8759 24.74 32.6875 23.7383 32.6875H16.4883C15.4865 32.6875 14.6758 31.8759 14.6758 30.875C14.6758 29.8741 15.4865 29.0625 16.4883 29.0625H18.1875V18.1875H16.4883C15.4865 18.1875 14.6758 17.3759 14.6758 16.375C14.6758 15.3741 15.4865 14.5625 16.4883 14.5625H21.8125V29.0625H23.7383C24.74 29.0625 25.5508 29.8741 25.5508 30.875ZM17.2812 10.1445C17.2812 8.64269 18.4991 7.42578 20 7.42578C21.5009 7.42578 22.7188 8.64269 22.7188 10.1445C22.7188 11.6464 21.5009 12.8633 20 12.8633C18.4991 12.8633 17.2812 11.6464 17.2812 10.1445Z" fill="black"/>
</svg>
