<svg xmlns="http://www.w3.org/2000/svg" width="14" height="18.484" viewBox="0 0 14 18.484">
  <g id="Group_660" data-name="Group 660" transform="translate(-0.001)">
    <path id="Path_1" data-name="Path 1" d="M254.1,138.36a5.833,5.833,0,0,1,4.517-1.315c-.514,1.13.16,3.665.224,5.058a2.274,2.274,0,0,1-.637,1.587c-.987.9-3.385.389-4.407-.278a2.392,2.392,0,0,1-1.163-2.206,4.279,4.279,0,0,1,1.466-2.847" transform="translate(-248.523 -125.693)" fill="#e50019" fill-rule="evenodd"/>
    <path id="Path_2" data-name="Path 2" d="M234.746,58.343c-1.312-.063-2.077-2.174-3.339-2.268a4.486,4.486,0,0,0-4.337,2.076c-.083-.036-4.289-6.41-2.169-5.236.406.225.928.785,1.329.79a.938.938,0,0,0,.773-.4c.247-.359.089-.666.029-1.046-.174-1.115.382-.834,1.207-.031,1.453,1.415,1.985.882,2.187,0a12.7,12.7,0,0,0,.113-1.851c.107-1.011.775-.627,1.032.046.153.4.245.912.394,1.287.9,2.274,1.545,1.317,2.4-.032.894-1.416,1.161-.95,1,.017-.083.511-.46,1.228-.136,1.655.222.292.733.368,1.709-.37.177-.134.369-.294.577-.485.506-.463.966-.959.718.3-.332,1.675-2.046,5.527-3.489,5.551" transform="translate(-224.303 -49.76)" fill="#e50019" fill-rule="evenodd"/>
    <path id="Path_3" data-name="Path 3" d="M271.838,108.72a.8.8,0,1,1-.8.8.8.8,0,0,1,.8-.8" transform="translate(-264.709 -101.058)" fill="#313132" fill-rule="evenodd"/>
    <path id="Path_4" data-name="Path 4" d="M240.659,124.312c2.813-1.882,4.89-2.508,4.71.4-1.028-.907-2.75-.822-4.71-.4" transform="translate(-233.504 -113.234)" fill="#313132" fill-rule="evenodd"/>
  </g>
</svg>
