<svg xmlns="http://www.w3.org/2000/svg" width="20.186" height="20.369" viewBox="0 0 20.186 20.369">
  <g id="Group_691" data-name="Group 691" transform="translate(-31.75 -290.568)">
    <path id="Stroke_1" data-name="Stroke 1" d="M1988.795,525.758a2.262,2.262,0,0,1,2.261-2.262h1.029a2.264,2.264,0,0,0,1.593-.657l.719-.72a2.262,2.262,0,0,1,3.2-.009h0l.009.008.72.72a2.26,2.26,0,0,0,1.593.657h1.028a2.262,2.262,0,0,1,2.262,2.262v1.027a2.262,2.262,0,0,0,.657,1.594l.72.72a2.262,2.262,0,0,1,.01,3.2h0l-.009.009-.72.72a2.255,2.255,0,0,0-.657,1.592v1.029a2.261,2.261,0,0,1-2.261,2.261h-1.031a2.259,2.259,0,0,0-1.593.658l-.72.719a2.261,2.261,0,0,1-3.2.012l0,0-.009-.009-.719-.719a2.263,2.263,0,0,0-1.593-.658h-1.027a2.261,2.261,0,0,1-2.261-2.261v-1.031a2.257,2.257,0,0,0-.658-1.592l-.719-.72a2.26,2.26,0,0,1-.011-3.2l0,0,.009-.009.719-.72a2.262,2.262,0,0,0,.658-1.594Z" transform="translate(-1954.25 -229.951)" fill="none" stroke="#fa6400" stroke-width="1.5"/>
    <g id="Group_690" data-name="Group 690" transform="translate(-0.428 -0.43)">
      <line id="Stroke_3" data-name="Stroke 3" x1="5.14" y2="5.14" transform="translate(39.428 298.027)" fill="none" stroke="#fa6400" stroke-width="1.5"/>
      <line id="Stroke_3-2" data-name="Stroke 3" x1="1.072" y2="1.667" transform="translate(42 303.262)" fill="none" stroke="#fa6400" stroke-width="1.5"/>
      <line id="Stroke_3-3" data-name="Stroke 3" x1="1.072" y2="1.667" transform="translate(40.928 296.428)" fill="none" stroke="#fa6400" stroke-width="1.5"/>
    </g>
  </g>
</svg>
