<svg width="46" height="46" viewBox="0 0 46 46" fill="none" xmlns="http://www.w3.org/2000/svg">
<path d="M25.0254 1.85024L30.2004 13.1002C30.4254 13.7752 31.1004 14.2252 31.7754 14.4502L43.4754 16.2502C45.5004 16.2502 46.1754 18.5002 44.8254 19.8502L36.2754 28.6252C35.8254 29.0752 35.6004 29.9752 35.6004 30.6502L37.6254 42.8002C37.8504 44.6002 36.0504 46.1752 34.4754 45.2752L23.9004 39.4252C23.2254 38.9752 22.5504 38.9752 21.8754 39.4252L11.3004 45.2752C9.72539 46.1752 7.70039 44.8252 8.15039 42.8002L10.1754 30.6502C10.4004 29.9752 9.95039 29.0752 9.50039 28.6252L0.950391 19.8502C-0.174609 18.5002 0.50039 16.2502 2.30039 16.0252L14.0004 14.2252C14.6754 14.2252 15.3504 13.5502 15.5754 12.8752L20.7504 1.62524C21.8754 0.0502355 24.1254 0.0502352 25.0254 1.85024Z" fill="black"/>
</svg>
