<svg width="38" height="52" viewBox="0 0 38 52" fill="none" xmlns="http://www.w3.org/2000/svg">
<path d="M18.9938 0.680664C8.76198 0.680664 0.434575 9.0114 0.43457 19.2432C0.434564 37.2467 17.949 50.9332 17.949 50.9332C18.5643 51.4233 19.4365 51.4233 20.0518 50.9332C20.0518 50.9332 37.5695 37.2467 37.5695 19.2432C37.5694 9.0114 29.2256 0.680664 18.9938 0.680664ZM18.9938 10.809C23.6337 10.809 27.4411 14.6033 27.4412 19.2432C27.4412 23.8831 23.6337 27.6873 18.9938 27.6873C14.3538 27.6873 10.5595 23.8831 10.5596 19.2432C10.5596 14.6033 14.3539 10.809 18.9938 10.809Z" fill="black"/>
</svg>
