<svg xmlns="http://www.w3.org/2000/svg" width="253.227" height="99.218" viewBox="0 0 253.227 99.218">
  <g id="Group_727" data-name="Group 727" transform="translate(-88.386 -1850.453)">
    <g id="Group_667" data-name="Group 667" transform="translate(0.387 -139)">
      <path id="Path_1" data-name="Path 1" d="M261.6,139.544c-2.447-2.293-5.438-2.605-8.548-2.488.972,2.138-.3,6.936-.424,9.574a4.3,4.3,0,0,0,1.206,3c1.867,1.712,6.407.737,8.34-.527a4.527,4.527,0,0,0,2.2-4.175,8.1,8.1,0,0,0-2.775-5.388" transform="translate(-44.527 1873.883)" fill="#e50019" fill-rule="evenodd"/>
      <path id="Path_2" data-name="Path 2" d="M231.038,66.005c2.484-.119,3.93-4.114,6.319-4.292,2.135-.586,5.94.621,8.208,3.929.157-.068,8.118-12.132,4.106-9.91-.769.426-1.756,1.485-2.514,1.495a1.775,1.775,0,0,1-1.464-.748c-.467-.68-.168-1.26-.056-1.979.33-2.11-.722-1.579-2.284-.058-2.75,2.678-3.757,1.67-4.14-.009a24.018,24.018,0,0,1-.214-3.5c-.2-1.913-1.468-1.187-1.953.088-.289.759-.464,1.727-.746,2.435-1.711,4.3-2.924,2.493-4.536-.061-1.691-2.68-2.2-1.8-1.9.032.156.968.87,2.324.257,3.133-.42.553-1.387.7-3.234-.7-.334-.253-.7-.557-1.092-.917-.958-.877-1.828-1.814-1.359.559.628,3.17,3.873,10.46,6.6,10.507" transform="translate(-23.166 1939.693)" fill="#e50019" fill-rule="evenodd"/>
      <path id="Path_3" data-name="Path 3" d="M272.55,108.72a1.509,1.509,0,1,0,1.509,1.509,1.509,1.509,0,0,0-1.509-1.509" transform="translate(-58.408 1895.234)" fill="#313132" fill-rule="evenodd"/>
      <path id="Path_4" data-name="Path 4" d="M249.593,125.738c-5.324-3.562-9.255-4.746-8.913.755,1.946-1.716,5.206-1.556,8.913-.755" transform="translate(-35.498 1884.68)" fill="#313132" fill-rule="evenodd"/>
      <path id="Path_6" data-name="Path 6" d="M203.368,214.019v1.406a9.631,9.631,0,0,1-.037,1.108,1.018,1.018,0,0,1-.2.459,1.211,1.211,0,0,1-1.011.512,1.2,1.2,0,0,1-1.071-.594.97.97,0,0,1-.155-.427c-.02-.16-.03-.512-.03-1.059v-1.406l-1.723-4.207a4.6,4.6,0,0,1-.419-1.361,1.112,1.112,0,0,1,.36-.834,1.209,1.209,0,0,1,.866-.345.993.993,0,0,1,.886.439,7.205,7.205,0,0,1,.5,1.311l.712,2.3.667-2.329a6.233,6.233,0,0,1,.5-1.271,1.034,1.034,0,0,1,.907-.439,1.189,1.189,0,0,1,.844.332,1.05,1.05,0,0,1,.354.794,4.957,4.957,0,0,1-.372,1.351Zm-7-.859-.242-1.286q-.109-.592-.307-2.24-.131,1.307-.257,2.27l-.16,1.256Zm.342,2.037h-1.586l-.06.417a5.356,5.356,0,0,1-.277,1.291,1.044,1.044,0,0,1-.442.427,1.322,1.322,0,0,1-.647.172,1.248,1.248,0,0,1-.9-.352,1.114,1.114,0,0,1-.369-.841,8.147,8.147,0,0,1,.167-1.111l1.141-5.977a8.5,8.5,0,0,1,.22-.956,1.5,1.5,0,0,1,.257-.464.976.976,0,0,1,.429-.317,2.035,2.035,0,0,1,.689-.092h.819a1.535,1.535,0,0,1,1.208.425,1.4,1.4,0,0,1,.227.422c.052.157.137.467.25.926l1.413,6.009a6.7,6.7,0,0,1,.22,1.166,1.09,1.09,0,0,1-.375.819,1.278,1.278,0,0,1-.9.345,1.334,1.334,0,0,1-.629-.157.99.99,0,0,1-.432-.4,5.067,5.067,0,0,1-.337-1.261Zm-7.027-1,.7-5.031a5.778,5.778,0,0,1,.319-1.3,1.008,1.008,0,0,1,.4-.417,1.118,1.118,0,0,1,.574-.16,1.069,1.069,0,0,1,.8.345,1.173,1.173,0,0,1,.33.846,7.771,7.771,0,0,1-.16,1.1l-1.113,5.972a9.072,9.072,0,0,1-.217.958,1.588,1.588,0,0,1-.25.467,1.287,1.287,0,0,1-1.024.409h-.527a1.126,1.126,0,0,1-.994-.469,1.52,1.52,0,0,1-.227-.444q-.074-.236-.2-.914l-.659-4.5-.686,4.484a9.114,9.114,0,0,1-.21.959,1.5,1.5,0,0,1-.252.474,1.265,1.265,0,0,1-1.031.409h-.534a1.148,1.148,0,0,1-1.009-.482,1.59,1.59,0,0,1-.214-.447c-.048-.155-.11-.459-.195-.914l-1.081-5.964a7.859,7.859,0,0,1-.152-1.119,1.155,1.155,0,0,1,.2-.652,1.114,1.114,0,0,1,.979-.519,1.126,1.126,0,0,1,.6.165.964.964,0,0,1,.387.434,5.882,5.882,0,0,1,.292,1.316l.592,4.993.761-4.976c.017-.082.047-.273.1-.572a1.637,1.637,0,0,1,.489-1.031,1.6,1.6,0,0,1,1.016-.3,1.376,1.376,0,0,1,1.194.512.914.914,0,0,1,.175.352c.029.123.092.484.19,1.089Zm-14.016-.437,0-4.566a9.132,9.132,0,0,1,.032-1.021.9.9,0,0,1,.187-.417,1.155,1.155,0,0,1,1.9.073.9.9,0,0,1,.142.394c.017.145.025.469.025.971v6.274a8.313,8.313,0,0,1-.038,1.014.9.9,0,0,1-.182.429,1.21,1.21,0,0,1-1.006.474h-.562a1.945,1.945,0,0,1-.594-.072,1.119,1.119,0,0,1-.417-.272,3.429,3.429,0,0,1-.522-1.126l-.994-3.043-.3-.944-.31-1.044,0,4.709c-.023.454-.016.769-.045.946a1.336,1.336,0,0,1-.19.5,1,1,0,0,1-.911.469,1.142,1.142,0,0,1-.567-.147.971.971,0,0,1-.389-.394,1.541,1.541,0,0,1-.157-.472,7.688,7.688,0,0,1-.032-.9v-6.274a8.6,8.6,0,0,1,.037-1.018.953.953,0,0,1,.175-.437,1.2,1.2,0,0,1,1.014-.47h.554a1.418,1.418,0,0,1,1.018.345,3.418,3.418,0,0,1,.522,1.126Zm-8.859-4.314v1.738h1.331a8.231,8.231,0,0,1,.914.03.815.815,0,0,1,.372.16,1.006,1.006,0,0,1,.424.836.987.987,0,0,1-.489.879.764.764,0,0,1-.352.125q-.195.022-.869.022h-1.331v2.1h1.615a8.194,8.194,0,0,1,.911.03.823.823,0,0,1,.374.16,1.006,1.006,0,0,1,.424.836.99.99,0,0,1-.492.879.767.767,0,0,1-.347.125c-.13.015-.419.022-.871.022h-2.035a7.618,7.618,0,0,1-1.191-.057,1.075,1.075,0,0,1-.524-.31,1.05,1.05,0,0,1-.309-.524,7.653,7.653,0,0,1-.058-1.2v-5.82a7.585,7.585,0,0,1,.058-1.191,1.05,1.05,0,0,1,.309-.524,1.066,1.066,0,0,1,.522-.31,7.579,7.579,0,0,1,1.194-.058h2.035a8.158,8.158,0,0,1,.914.03.829.829,0,0,1,.372.16,1.019,1.019,0,0,1,.424.836.99.99,0,0,1-.492.879.767.767,0,0,1-.347.125c-.13.015-.419.023-.871.023Zm-6.728,3.6v2.377a9.548,9.548,0,0,1-.038,1.108,1.02,1.02,0,0,1-.2.459,1.232,1.232,0,0,1-1.019.512,1.192,1.192,0,0,1-1.064-.594.967.967,0,0,1-.155-.427c-.02-.16-.03-.512-.03-1.059V209.36a9.5,9.5,0,0,1,.038-1.1,1,1,0,0,1,.2-.459,1.233,1.233,0,0,1,1.021-.512,1.2,1.2,0,0,1,1.064.592.991.991,0,0,1,.152.422c.02.157.03.509.03,1.058v2.407l1.206-2.944a5.044,5.044,0,0,1,.592-1.191.965.965,0,0,1,.377-.257,1.24,1.24,0,0,1,.477-.1,1.1,1.1,0,0,1,1.039.614,1.135,1.135,0,0,1,.16.542,4.149,4.149,0,0,1-.474,1.348l-1.181,2.494,1.313,2.8a4.324,4.324,0,0,1,.477,1.316,1,1,0,0,1-.384.782,1.321,1.321,0,0,1-.889.332,1.14,1.14,0,0,1-.826-.3,3.552,3.552,0,0,1-.647-1.138Zm-6.126-5.8a3.545,3.545,0,0,1,2.18.609,2.313,2.313,0,0,1,.861,1.97q0,1.539-1.206,1.541a1.1,1.1,0,0,1-.966-.375,2.082,2.082,0,0,1-.167-.816,1.1,1.1,0,0,0-.227-.632.712.712,0,0,0-.549-.2.729.729,0,0,0-.781.489,1.861,1.861,0,0,0-.107.467c-.012.142-.022.567-.032,1.268-.015.629-.023,1.036-.023,1.223a8.853,8.853,0,0,0,.132,1.967.836.836,0,0,0,.864.682.722.722,0,0,0,.559-.192,1.137,1.137,0,0,0,.2-.677,1.253,1.253,0,0,1,.307-.831,1.279,1.279,0,0,1,.921-.322,1.115,1.115,0,0,1,.9.387,1.617,1.617,0,0,1,.324,1.074,2.736,2.736,0,0,1-.257,1.173,2.3,2.3,0,0,1-.7.886,4.009,4.009,0,0,1-2.419.6,3.45,3.45,0,0,1-2.157-.577,2.638,2.638,0,0,1-.829-1.128,6.081,6.081,0,0,1-.362-1.835q-.045-.667-.045-2.516a7.124,7.124,0,0,1,.357-2.631Q151.431,207.243,153.957,207.243Zm-4.351,2.117v6.064a9.629,9.629,0,0,1-.037,1.108,1.021,1.021,0,0,1-.2.459,1.224,1.224,0,0,1-1.011.512,1.2,1.2,0,0,1-1.071-.594.964.964,0,0,1-.155-.427c-.02-.16-.03-.512-.03-1.059V209.36a9.63,9.63,0,0,1,.037-1.106,1,1,0,0,1,.2-.454,1.233,1.233,0,0,1,1.021-.512,1.2,1.2,0,0,1,1.064.592.982.982,0,0,1,.152.427C149.6,208.464,149.606,208.816,149.606,209.36Zm-5.876,3.875h-1.648v2.187a9.634,9.634,0,0,1-.038,1.111,1.02,1.02,0,0,1-.2.459,1.225,1.225,0,0,1-1.011.512,1.2,1.2,0,0,1-1.071-.594.978.978,0,0,1-.155-.427c-.02-.16-.03-.512-.03-1.061V209.36a9.63,9.63,0,0,1,.037-1.106,1,1,0,0,1,.2-.454,1.233,1.233,0,0,1,1.021-.512,1.2,1.2,0,0,1,1.064.592,1,1,0,0,1,.152.427c.02.157.03.509.03,1.053v1.823h1.648V209.36a9.685,9.685,0,0,1,.037-1.108.962.962,0,0,1,.2-.452,1.262,1.262,0,0,1,2.085.08.994.994,0,0,1,.152.427c.02.157.03.509.03,1.053v6.062a9.634,9.634,0,0,1-.038,1.111,1.02,1.02,0,0,1-.2.459,1.225,1.225,0,0,1-1.011.512,1.2,1.2,0,0,1-1.071-.594.981.981,0,0,1-.155-.427c-.02-.16-.03-.512-.03-1.061Zm-7.774-5.992a3.545,3.545,0,0,1,2.18.609,2.313,2.313,0,0,1,.861,1.97q0,1.539-1.206,1.541a1.1,1.1,0,0,1-.966-.375,2.089,2.089,0,0,1-.167-.816,1.1,1.1,0,0,0-.227-.632.711.711,0,0,0-.549-.2.729.729,0,0,0-.781.489,1.848,1.848,0,0,0-.107.467c-.013.142-.023.567-.032,1.268-.015.629-.023,1.036-.023,1.223a8.853,8.853,0,0,0,.132,1.967.836.836,0,0,0,.864.682.721.721,0,0,0,.559-.192,1.136,1.136,0,0,0,.2-.677,1.254,1.254,0,0,1,.307-.831,1.279,1.279,0,0,1,.921-.322,1.114,1.114,0,0,1,.9.387,1.615,1.615,0,0,1,.325,1.074,2.736,2.736,0,0,1-.257,1.173,2.3,2.3,0,0,1-.7.886,4.009,4.009,0,0,1-2.419.6,3.449,3.449,0,0,1-2.157-.577,2.638,2.638,0,0,1-.829-1.128,6.081,6.081,0,0,1-.362-1.835q-.045-.667-.045-2.516a7.117,7.117,0,0,1,.357-2.631Q133.43,207.243,135.956,207.243Z" transform="translate(46.152 1820.941)" fill="#e50019"/>
    </g>
    <path id="Path_5" data-name="Path 5" d="M229.262,144.387H165.63a39.293,39.293,0,0,0,3.281,6.665h60.351a11.109,11.109,0,0,1,10.876,13.373l-5.1,24.493a11.018,11.018,0,0,1-10.876,8.845H16.714a11.018,11.018,0,0,1-10.876-8.845l-5.1-24.493A10.775,10.775,0,0,1,3,155.152a10.707,10.707,0,0,1,8.619-4.1l60.025.207a18.079,18.079,0,0,0,1.92-6.872H11.616a17.435,17.435,0,0,0-13.789,6.559,17.48,17.48,0,0,0-3.612,14.836l5.1,24.493a17.684,17.684,0,0,0,17.4,14.153h207.45a17.684,17.684,0,0,0,17.4-14.153l5.1-24.493a17.774,17.774,0,0,0-17.4-21.4" transform="translate(94.561 1745.242)" fill="#ffbe00" fill-rule="evenodd"/>
    <text id="Chicken_Way_Chicken_All_The_Way" data-name="Chicken Way, Chicken All The Way" transform="translate(115 1924)" fill="#292323" font-size="12" font-family="Poppins-Light, Poppins" font-weight="300"><tspan x="0" y="0">Chicken Way, Chicken All The Way</tspan></text>
  </g>
</svg>
