<svg width="48" height="34" viewBox="0 0 48 34" fill="none" xmlns="http://www.w3.org/2000/svg">
<path d="M3.75 6.875H44.25C46.113 6.875 47.625 5.363 47.625 3.5C47.625 1.637 46.113 0.125 44.25 0.125H3.75C1.887 0.125 0.375 1.637 0.375 3.5C0.375 5.363 1.887 6.875 3.75 6.875ZM44.25 13.625H3.75C1.887 13.625 0.375 15.137 0.375 17C0.375 18.863 1.887 20.375 3.75 20.375H44.25C46.113 20.375 47.625 18.863 47.625 17C47.625 15.137 46.113 13.625 44.25 13.625ZM44.25 27.125H3.75C1.887 27.125 0.375 28.637 0.375 30.5C0.375 32.363 1.887 33.875 3.75 33.875H44.25C46.113 33.875 47.625 32.363 47.625 30.5C47.625 28.637 46.113 27.125 44.25 27.125Z" fill="black"/>
</svg>
