<svg width="54" height="54" viewBox="0 0 54 54" fill="none" xmlns="http://www.w3.org/2000/svg">
<g clip-path="url(#clip0_2057_2818)">
<path d="M27 49.5C14.5733 49.5 4.5 39.4268 4.5 27C4.5 14.5733 14.5733 4.50001 27 4.50001C30.4935 4.49738 33.9394 5.30949 37.0641 6.87183C40.1888 8.43416 42.906 10.7036 45 13.5H38.9025C36.3043 11.209 33.1001 9.71631 29.6746 9.20116C26.2491 8.686 22.7476 9.17023 19.5905 10.5957C16.4333 12.0212 13.7546 14.3275 11.8757 17.2377C9.99673 20.1479 8.99746 23.5384 8.99774 27.0025C8.99803 30.4666 9.99787 33.8569 11.8773 36.7668C13.7567 39.6767 16.4358 41.9825 19.5932 43.4075C22.7506 44.8325 26.2521 45.3161 29.6776 44.8004C33.103 44.2847 36.3069 42.7915 38.9048 40.5H45.0023C42.908 43.2967 40.1904 45.5663 37.0653 47.1287C33.9403 48.691 30.4939 49.503 27 49.5ZM42.75 36V29.25H24.75V24.75H42.75V18L54 27L42.75 36Z" fill="black"/>
</g>
<defs>
<clipPath id="clip0_2057_2818">
<rect width="54" height="54" fill="white"/>
</clipPath>
</defs>
</svg>
