<svg width="54" height="54" viewBox="0 0 54 54" fill="none" xmlns="http://www.w3.org/2000/svg">
<g clip-path="url(#clip0_2057_2828)">
<path d="M20.25 30.375C23.9777 30.375 27 27.3527 27 23.625C27 19.8973 23.9777 16.875 20.25 16.875C16.5223 16.875 13.5 19.8973 13.5 23.625C13.5 27.3527 16.5223 30.375 20.25 30.375ZM40.5 23.7246V9.423L31.0736 0H0V54H40.5V53.8988C48.0921 53.0584 53.9983 46.629 53.9983 38.8125C53.9983 30.996 48.0921 24.5649 40.5 23.7246ZM30.3716 4.07194L36.4264 10.125H30.3716V4.07194ZM3.375 50.625V3.37162H27V13.4983H37.125V23.7246C31.2576 24.3743 26.4128 28.3652 24.5076 33.75C18.4967 33.75 10.125 33.75 10.125 33.75C10.125 33.75 6.75 33.75 6.75 37.125C6.75 38.8125 6.75 47.25 6.75 47.25H26.1866C27.0405 48.5257 28.0851 49.6631 29.2781 50.625H3.375ZM38.8125 50.6233C32.2903 50.6098 27.0101 45.333 27 38.8125C27.0101 32.2903 32.2903 27.0101 38.8125 27C45.333 27.0101 50.6098 32.2903 50.6233 38.8125C50.6098 45.333 45.333 50.6098 38.8125 50.6233Z" fill="black"/>
<path d="M44.118 37.1248C44.1315 36.9037 44.1416 36.6742 44.1416 36.4346C44.1315 35.2905 43.9931 33.9169 43.2034 32.6225C42.4322 31.308 40.7767 30.3275 38.8125 30.3731C36.8466 30.3275 35.1878 31.308 34.4166 32.6225C33.6234 33.9169 33.4851 35.2905 33.4783 36.4346C33.4783 36.6759 33.4884 36.9037 33.5019 37.1248H32.0625V45.5623H45.5625V37.1248H44.118ZM36.8499 36.4346C36.8432 35.628 37.0069 34.818 37.2786 34.413C37.5705 34.0299 37.7342 33.7954 38.8125 33.7481C39.8874 33.7937 40.0444 34.0265 40.338 34.413C40.6114 34.818 40.7751 35.633 40.7649 36.4346C40.7649 36.6793 40.7514 36.9071 40.7329 37.1248H36.882C36.8651 36.9037 36.8499 36.6725 36.8499 36.4346Z" fill="black"/>
</g>
<defs>
<clipPath id="clip0_2057_2828">
<rect width="54" height="54" fill="white"/>
</clipPath>
</defs>
</svg>
