<svg width="54" height="54" viewBox="0 0 54 54" fill="none" xmlns="http://www.w3.org/2000/svg">
<path d="M27 31.5C33.2132 31.5 38.25 25.4558 38.25 18C38.25 10.5442 33.2132 4.5 27 4.5C20.7868 4.5 15.75 10.5442 15.75 18C15.75 25.4558 20.7868 31.5 27 31.5Z" fill="black"/>
<path d="M49.0505 42.975C47.0255 38.925 43.2005 35.55 38.2505 33.525C36.9005 33.075 35.3255 33.075 34.2005 33.75C31.9505 35.1 29.7005 35.775 27.0005 35.775C24.3005 35.775 22.0505 35.1 19.8005 33.75C18.6755 33.3 17.1005 33.075 15.7505 33.75C10.8005 35.775 6.97549 39.1501 4.95049 43.2001C3.37549 46.1251 5.85049 49.5 9.22549 49.5H44.7755C48.1505 49.5 50.6255 46.125 49.0505 42.975Z" fill="black"/>
</svg>
