<svg width="54" height="54" viewBox="0 0 54 54" fill="none" xmlns="http://www.w3.org/2000/svg">
<g clip-path="url(#clip0_2057_2841)">
<path d="M13.7162 32.8321C12.5764 33.9463 11.1323 34.6981 9.56591 34.9929C7.9995 35.2876 6.38089 35.1121 4.91408 34.4884C3.44727 33.8647 2.19791 32.8208 1.32345 31.4882C0.448985 30.1556 -0.0114344 28.5939 0.000215743 27.0001C0.00119546 25.4118 0.469108 23.8588 1.34575 22.5344C2.22239 21.2099 3.46908 20.1724 4.93073 19.5509C6.39239 18.9294 8.0045 18.7514 9.56656 19.0389C11.1286 19.3264 12.5717 20.0669 13.7162 21.1681L37.8542 9.09908C37.6152 7.20377 38.0539 5.28498 39.0925 3.68171C40.1312 2.07844 41.7031 0.893872 43.5306 0.337278C45.358 -0.219317 47.3234 -0.112115 49.0794 0.639943C50.8355 1.392 52.2692 2.74052 53.1273 4.44725C53.9855 6.15398 54.2128 8.10909 53.7691 9.96717C53.3254 11.8253 52.2392 13.4667 50.7026 14.6016C49.1659 15.7365 47.2775 16.2917 45.3711 16.1692C43.4647 16.0467 41.663 15.2543 40.2842 13.9321L16.1462 26.0011C16.2278 26.6646 16.2278 27.3356 16.1462 27.9991L40.2842 40.0681C41.424 38.9539 42.8681 38.2021 44.4345 37.9073C46.0009 37.6126 47.6195 37.7881 49.0863 38.4118C50.5532 39.0355 51.8025 40.0794 52.677 41.412C53.5514 42.7446 54.0119 44.3062 54.0002 45.9001C53.991 47.0002 53.7578 48.0869 53.3148 49.0939C52.8719 50.1009 52.2284 51.0071 51.4237 51.7573C50.619 52.5075 49.6699 53.0858 48.6343 53.4571C47.5987 53.8284 46.4983 53.9849 45.4003 53.9169C44.3022 53.849 43.2295 53.5581 42.2476 53.062C41.2657 52.5658 40.3952 51.8749 39.6891 51.0312C38.9829 50.1876 38.4561 49.209 38.1406 48.155C37.8252 47.1011 37.7277 45.9939 37.8542 44.9011L13.7162 32.8321Z" fill="black"/>
</g>
<defs>
<clipPath id="clip0_2057_2841">
<rect width="54" height="54" fill="white"/>
</clipPath>
</defs>
</svg>
