<svg width="48" height="48" viewBox="0 0 48 48" fill="none" xmlns="http://www.w3.org/2000/svg">
<path d="M21.8524 24.263L23.3374 22.779L20.6444 20.085L19.1604 21.571C18.2964 20.999 17.3324 20.572 16.3024 20.304V18.084H11.5214V20.304C10.4684 20.576 9.48235 21.015 8.60435 21.606L7.17935 20.181L4.48635 22.873L5.93535 24.322C5.38135 25.171 4.96535 26.115 4.70535 27.122H2.48535V31.898H4.70335C4.97035 32.929 5.39735 33.896 5.97035 34.76L4.48535 36.244L7.17835 38.935L8.66335 37.451C9.52935 38.024 10.4974 38.453 11.5304 38.72V40.936H16.2914V38.72C17.3014 38.46 18.2484 38.042 19.0994 37.489L20.6434 39.032L23.3364 36.341L21.8154 34.819C22.4094 33.936 22.8494 32.943 23.1214 31.885H25.3374V27.138H23.1214C22.8554 26.103 22.4284 25.131 21.8524 24.263ZM13.9114 33.428C11.7484 33.428 9.99435 31.674 9.99435 29.511C9.99435 27.348 11.7484 25.594 13.9114 25.594C16.0744 25.594 17.8284 27.348 17.8284 29.511C17.8284 31.674 16.0744 33.428 13.9114 33.428Z" fill="#241F20"/>
<path d="M9.36015 5.6719V4.7969V3.8589H28.2501H29.2971H29.3691V4.8099V5.8279V11.9839H32.2341H36.5431H37.4221V17.0839V19.0839V19.3079H41.3261V19.0839V17.0839V11.9839V9.4219L31.9321 0.0249023H29.3691H5.45215V17.7659H9.36015V5.6719Z" fill="#241F20"/>
<path d="M32.6641 37.938L36.5081 42.408L40.3551 37.938H38.3911V32.512H40.3791L36.5311 28.042L32.6881 32.51H34.6191V37.938H32.6641Z" fill="#241F20"/>
<path d="M45.5159 23.0698H27.5859V26.9998H45.5159V23.0698Z" fill="#241F20"/>
<path d="M45.4724 43.125H27.5684V48H45.4724V43.125Z" fill="#241F20"/>
</svg>
