<svg xmlns="http://www.w3.org/2000/svg" width="14" height="14" viewBox="0 0 14 14">
  <path id="Path_4429" data-name="Path 4429" d="M224,755.746a4.517,4.517,0,0,1,3.865-.513c2.776.94,3.637,4.117,2.867,6.644-1.189,3.97-6.268,6.931-6.483,7.056a.493.493,0,0,1-.492,0c-.214-.123-5.256-3.041-6.485-7.057h0c-.771-2.528.087-5.706,2.861-6.644A4.417,4.417,0,0,1,224,755.746Zm-3.554.512c-2.244.759-2.807,3.293-2.2,5.291.959,3.131,4.747,5.663,5.753,6.29,1.01-.634,4.825-3.193,5.753-6.287.609-2,.044-4.534-2.2-5.294a3.478,3.478,0,0,0-3.235.568.493.493,0,0,1-.622,0A3.442,3.442,0,0,0,220.445,756.259Zm6.449,1.426a2.51,2.51,0,0,1,1.665,2.207.531.531,0,0,1-.469.58l-.043,0a.524.524,0,0,1-.511-.495,1.442,1.442,0,0,0-.957-1.27.545.545,0,0,1-.331-.678A.51.51,0,0,1,226.894,757.685Z" transform="translate(-217 -755)" fill="#e02020" fill-rule="evenodd"/>
</svg>
